<?xml version="1.0" encoding="utf-8"?>
<!-- Generator: Adobe Illustrator 20.1.0, SVG Export Plug-In . SVG Version: 6.00 Build 0)  -->
<svg version="1.1" id="Layer_1" xmlns="http://www.w3.org/2000/svg" xmlns:xlink="http://www.w3.org/1999/xlink" x="0px" y="0px"
	 viewBox="0 0 97 97" enable-background="new 0 0 97 97" xml:space="preserve">
<circle fill="#E1E5EA" cx="48.5" cy="48.5" r="48.5"/>
<path d="M12.1,66.9v-44c0-0.8,0.7-1.4,1.5-1.4h69.8c0.8,0,1.5,0.6,1.5,1.4v44L12.1,66.9L12.1,66.9z"/>
<path fill="#636363" d="M84.9,66.9V73c0,0.8-0.7,1.5-1.5,1.5H13.6c-0.8,0-1.5-0.7-1.5-1.5v-6.1H84.9L84.9,66.9z"/>
<polygon fill="#C9C9C9" points="37.9,85.1 59.1,85.1 57.6,74.5 39.4,74.5 "/>
<polygon fill="#AAAAAA" points="57.6,74.5 39.4,74.5 38.5,81.1 57.9,77 "/>
<rect x="32.6" y="85.1" fill="#636363" width="31.8" height="1.5"/>
<polygon fill="#939393" points="39.4,74.5 57.6,74.5 57.7,75.2 38.9,77.8 "/>
<rect x="21" y="27.8" fill="#5780DE" width="25" height="14.2"/>
<rect x="21" y="46.4" fill="#E1E5EA" width="25" height="14.2"/>
<rect x="51" y="27.8" fill="#5780DE" width="25" height="14.2"/>
<rect x="51" y="46.4" fill="#E1E5EA" width="25" height="14.2"/>
</svg>
