<?xml version="1.0" encoding="utf-8"?>
<!-- Generator: Adobe Illustrator 20.1.0, SVG Export Plug-In . SVG Version: 6.00 Build 0)  -->
<svg version="1.1" id="Слой_1" xmlns="http://www.w3.org/2000/svg" xmlns:xlink="http://www.w3.org/1999/xlink" x="0px" y="0px"
	 viewBox="0 0 53.4 74" enable-background="new 0 0 53.4 74" xml:space="preserve">
<path fill-rule="evenodd" clip-rule="evenodd" fill="#FF8813" d="M29.5,8.7c1.1-2.6,0-5.5-2.5-6.7c-0.5,0.3-1,0.6-1.4,1
	c-0.7-1.2-1.9-2.3-3.2-3c-2.9,1.4-4.5,4.5-4.1,7.7C8.7,9.6,1.4,18,1.4,28.2c0,9.3,6.2,17.6,15.2,20.1c-2.2-6.5-2.1-16.9,2.7-22.1
	c1.6-1.8,3.5-2.6,5.6-2.9c2.9-0.4,6.7,0.2,9.5,1.2c1.1,0.4,2.3,1,3.4,1c1.8,0,3.3-1,4-2.5c-3.3-1.4-6-4-7.3-7.4
	c-0.8-1.9-0.8-3.6-2.5-5.3C31.3,9.5,30.5,9,29.5,8.7L29.5,8.7z M6.2,56.3c3.6,8,11.5,13.3,20.5,13.3c4.4,0,8.5-1.3,12-3.5
	c-0.2,0-0.5-0.1-0.7-0.1c-5.2-0.8-9.9-3-13.6-6.3c1.6-1.6,3.1-3.3,4.4-5.2C21.7,57.9,13.6,58.5,6.2,56.3L6.2,56.3z M23.8,6.8
	c0,1.3-0.5,2.5-1.4,3.4c-1.8-1.9-1.8-4.8,0-6.7C23.3,4.3,23.8,5.5,23.8,6.8L23.8,6.8z M30.1,17c-1.7,0-3.1-1.3-3.3-2.9
	c1.9-0.5,3.9,0.8,4.1,2.8C30.7,17,30.4,17,30.1,17L30.1,17z M24.3,48.9c-1.8-3.5-2.8-8.6-2-13.1c0.8-5.2,4.6-9.8,10.2-9.3
	c2.7,0.2,4.7,1.7,7.6,0.7c0.9-0.3,1.7-0.8,2.4-1.5c6.6,4.9,10.9,12.7,10.9,21.5C53.4,62,41.5,74,26.7,74C12.4,74,0.7,62.7,0,48.5
	c4.5,3.1,9.8,4.8,15.2,4.8c7.6,0,14.5-3.2,19.3-8.3C31.6,47.2,28.1,48.6,24.3,48.9z"/>
</svg>
