<?xml version="1.0" encoding="utf-8"?>
<!-- Generator: Adobe Illustrator 20.1.0, SVG Export Plug-In . SVG Version: 6.00 Build 0)  -->
<svg version="1.1" id="Layer_1" xmlns="http://www.w3.org/2000/svg" xmlns:xlink="http://www.w3.org/1999/xlink" x="0px" y="0px"
	 viewBox="0 0 97 97" enable-background="new 0 0 97 97" xml:space="preserve">
<circle fill="#E1E5EA" cx="48.5" cy="48.5" r="48.5"/>
<path d="M87.1,75.5V23.3c0-1.3-1-2.3-2.3-2.3H12.1c-1.3,0-2.3,1-2.3,2.3v52.3C9.9,75.5,87.3,75.5,87.1,75.5z"/>
<rect x="12.7" y="23.8" width="71.6" height="48.9"/>
<rect x="3" y="75.5" fill="#D8D8D8" width="90.9" height="1.4"/>
<polygon fill="#AAAAAA" points="89.4,79.8 7.6,79.8 3,77 94,77 "/>
<g opacity="0.7">
	<path fill="#FFFFFF" d="M56.1,75.5H40.8c0.1,0.8,0.9,1.4,1.7,1.4h11.8C55.3,77,56,76.3,56.1,75.5z"/>
</g>
<g>
	<rect x="21" y="28" fill="#FE9426" width="25" height="22.2"/>
	<rect x="51.1" y="28" fill="#FE9426" width="25" height="22.2"/>
</g>
<g>
	<rect x="27.3" y="58.1" fill="#E1E5EA" width="42.4" height="1.5"/>
	<rect x="21" y="63.2" fill="#E1E5EA" width="55" height="1.5"/>
	<rect x="21" y="68.2" fill="#E1E5EA" width="55" height="1.5"/>
</g>
</svg>
