<?xml version="1.0" encoding="utf-8"?>
<!-- Generator: Adobe Illustrator 20.1.0, SVG Export Plug-In . SVG Version: 6.00 Build 0)  -->
<svg version="1.1" id="Layer_1" xmlns="http://www.w3.org/2000/svg" xmlns:xlink="http://www.w3.org/1999/xlink" x="0px" y="0px"
	 viewBox="0 0 185 185" enable-background="new 0 0 185 185" xml:space="preserve">
<circle fill="#E1E5EA" cx="92.5" cy="92.5" r="92.5"/>
<path d="M166.2,144.1V44.4c0-2.4-2-4.3-4.3-4.3H23.2c-2.4,0-4.3,2-4.3,4.3v99.7C18.8,144.1,166.6,144.1,166.2,144.1z"/>
<rect x="24.2" y="45.4" width="136.5" height="93.2"/>
<rect x="5.8" y="144.1" fill="#D8D8D8" width="173.4" height="2.7"/>
<polygon fill="#AAAAAA" points="170.5,152.2 14.5,152.2 5.8,146.8 179.2,146.8 "/>
<g opacity="0.7">
	<path fill="#FFFFFF" d="M107.1,144.1H77.9c0.3,1.5,1.6,2.7,3.3,2.7h22.5C105.4,146.8,106.8,145.6,107.1,144.1z"/>
</g>
<g>
	<rect x="52" y="120.4" fill="#E1E5EA" width="80.9" height="2.9"/>
	<rect x="40" y="130.1" fill="#E1E5EA" width="104.9" height="2.9"/>
</g>
<circle fill="#FE9426" cx="53.2" cy="81.4" r="14.5"/>
<polygon fill="#FFFFFF" points="52.1,87.9 46.7,82.4 48.8,80.4 51.9,83.5 58.1,75.9 60.3,77.7 "/>
<circle fill="#FE9426" cx="91.9" cy="81.4" r="14.5"/>
<polygon fill="#FFFFFF" points="90.8,87.9 85.4,82.4 87.5,80.4 90.6,83.5 96.8,75.9 99,77.7 "/>
<circle fill="#FE9426" cx="131.8" cy="81.4" r="14.5"/>
<polygon fill="#FFFFFF" points="130.7,87.9 125.3,82.4 127.3,80.4 130.4,83.5 136.6,75.9 138.9,77.7 "/>
</svg>
