<?xml version="1.0" encoding="utf-8"?>
<!-- Generator: Adobe Illustrator 20.1.0, SVG Export Plug-In . SVG Version: 6.00 Build 0)  -->
<svg version="1.1" id="Layer_1" xmlns="http://www.w3.org/2000/svg" xmlns:xlink="http://www.w3.org/1999/xlink" x="0px" y="0px"
	 viewBox="0 0 97 97" enable-background="new 0 0 97 97" xml:space="preserve">
<circle fill="#E1E5EA" cx="48.5" cy="48.5" r="48.5"/>
<path d="M12.1,66.9v-44c0-0.8,0.7-1.4,1.5-1.4h69.8c0.8,0,1.5,0.6,1.5,1.4v44L12.1,66.9L12.1,66.9z"/>
<path fill="#636363" d="M84.9,66.9V73c0,0.8-0.7,1.5-1.5,1.5H13.6c-0.8,0-1.5-0.7-1.5-1.5v-6.1H84.9L84.9,66.9z"/>
<polygon fill="#C9C9C9" points="37.9,85.1 59.1,85.1 57.6,74.5 39.4,74.5 "/>
<polygon fill="#AAAAAA" points="57.6,74.5 39.4,74.5 38.5,81.1 57.9,77 "/>
<rect x="32.6" y="85.1" fill="#636363" width="31.8" height="1.5"/>
<polygon fill="#939393" points="39.4,74.5 57.6,74.5 57.7,75.2 38.9,77.8 "/>
<g>
	<rect x="29" y="54.6" fill="#E1E5EA" width="39" height="1.5"/>
	<rect x="21" y="59.3" fill="#E1E5EA" width="55" height="1.5"/>
</g>
<circle fill="#5780DE" cx="27.9" cy="39.8" r="7.6"/>
<polygon fill="#FFFFFF" points="27.3,43.1 24.5,40.3 25.6,39.2 27.2,40.9 30.4,36.8 31.6,37.8 "/>
<circle fill="#FE9426" cx="48.2" cy="39.8" r="7.6"/>
<polygon points="47.6,43.1 44.8,40.3 45.9,39.2 47.5,40.9 50.7,36.8 51.9,37.8 "/>
<circle fill="#5780DE" cx="69.1" cy="39.8" r="7.6"/>
<polygon fill="#FFFFFF" points="68.5,43.1 65.7,40.3 66.7,39.2 68.4,40.9 71.6,36.8 72.8,37.8 "/>
<path d="M92.6,97H69.2c-0.8,0-1.4-0.6-1.4-1.4v-44c0-0.8,0.6-1.4,1.4-1.4h23.4c0.8,0,1.4,0.6,1.4,1.4v44C94,96.4,93.3,97,92.6,97z"
	/>
<rect x="69.2" y="53.9" width="23.4" height="37.4"/>
<g>
	<path fill="#999999" d="M83.6,52.5H78c-0.3,0-0.5-0.2-0.5-0.5l0,0c0-0.3,0.2-0.5,0.5-0.5h5.6c0.3,0,0.5,0.2,0.5,0.5l0,0
		C84.1,52.3,83.9,52.5,83.6,52.5z"/>
	<path fill="#999999" d="M83.7,94.2h-5.6c-0.3,0-0.5-0.2-0.5-0.5l0,0c0-0.3,0.2-0.5,0.5-0.5h5.6c0.3,0,0.5,0.2,0.5,0.5l0,0
		C84.1,94,83.9,94.2,83.7,94.2z"/>
</g>
<circle fill="#5780DE" cx="80.8" cy="60.8" r="5"/>
<polygon fill="#FFFFFF" points="80.5,63 78.6,61.2 79.3,60.5 80.4,61.6 82.5,58.9 83.3,59.6 "/>
<circle fill="#FE9426" cx="80.8" cy="72.7" r="5"/>
<polygon points="80.5,74.9 78.6,73 79.3,72.3 80.4,73.4 82.5,70.8 83.3,71.4 "/>
<circle fill="#5780DE" cx="80.8" cy="84.5" r="5"/>
<polygon fill="#FFFFFF" points="80.5,86.7 78.6,84.8 79.3,84.1 80.4,85.2 82.5,82.6 83.3,83.2 "/>
</svg>
