<?xml version="1.0" encoding="utf-8"?>
<!-- Generator: Adobe Illustrator 20.1.0, SVG Export Plug-In . SVG Version: 6.00 Build 0)  -->
<svg version="1.1" id="Layer_1" xmlns="http://www.w3.org/2000/svg" xmlns:xlink="http://www.w3.org/1999/xlink" x="0px" y="0px"
	 viewBox="0 0 185 185" enable-background="new 0 0 185 185" xml:space="preserve">
<circle fill="#E1E5EA" cx="92.5" cy="92.5" r="92.5"/>
<rect x="27.1" y="52.9" fill="#FFFFFF" width="130.9" height="93.1"/>
<g>
	<polygon fill="#E1E5EA" points="122.1,136.4 62.9,136.4 53.2,143.8 131.8,143.8 	"/>
	<polygon fill="#E1E5EA" points="55.4,136.4 38.4,136.4 28.7,143.8 45.8,143.8 	"/>
	<polygon fill="#E1E5EA" points="146.6,136.4 129.6,136.4 139.2,143.8 156.3,143.8 	"/>
	<polygon fill="#E1E5EA" points="122.1,62.8 62.9,62.8 53.2,55.4 131.8,55.4 	"/>
	<polygon fill="#E1E5EA" points="55.4,62.8 38.4,62.8 28.7,55.4 45.8,55.4 	"/>
	<polygon fill="#E1E5EA" points="146.6,62.8 129.6,62.8 139.2,55.4 156.3,55.4 	"/>
</g>
<path fill="#FFFFFF" d="M156.9,54v91H28.1V54H156.9 M159,51.9H26v95.2h133V51.9L159,51.9z"/>
<path d="M26,55.4V38.8c0-2.3,1.9-4.2,4.2-4.2h124.6c2.3,0,4.2,1.9,4.2,4.2v16.6H26L26,55.4z"/>
<polygon fill="#FFFFFF" points="148.5,50.8 70.6,50.8 78,39.3 148.5,39.3 "/>
<circle fill="#FE9426" cx="40" cy="44.9" r="3.5"/>
<circle fill="#5780DE" cx="49.4" cy="44.9" r="3.5"/>
<circle fill="#939393" cx="58.8" cy="44.9" r="3.5"/>
<path d="M82,42.9l0.5,2.2c0.1,0.5,0.2,1,0.3,1.5h0c0.1-0.5,0.3-1,0.4-1.5l0.6-2.2h1l0.6,2.1c0.1,0.6,0.3,1.1,0.4,1.6h0
	c0.1-0.5,0.2-1,0.3-1.6l0.5-2.1h1.2l-1.5,4.8h-1.1l-0.6-1.9c-0.1-0.5-0.3-0.9-0.4-1.5h0c-0.1,0.6-0.2,1.1-0.4,1.5l-0.6,1.9h-1.1
	l-1.4-4.8H82z"/>
<path d="M89.5,42.9l0.5,2.2c0.1,0.5,0.2,1,0.3,1.5h0c0.1-0.5,0.3-1,0.4-1.5l0.6-2.2h1l0.6,2.1c0.1,0.6,0.3,1.1,0.4,1.6h0
	c0.1-0.5,0.2-1,0.3-1.6l0.5-2.1h1.2l-1.5,4.8h-1.1l-0.6-1.9c-0.1-0.5-0.3-0.9-0.4-1.5h0c-0.1,0.6-0.2,1.1-0.4,1.5l-0.6,1.9h-1.1
	l-1.4-4.8H89.5z"/>
<path d="M97,42.9l0.5,2.2c0.1,0.5,0.2,1,0.3,1.5h0c0.1-0.5,0.3-1,0.4-1.5l0.6-2.2h1l0.6,2.1c0.1,0.6,0.3,1.1,0.4,1.6h0
	c0.1-0.5,0.2-1,0.3-1.6l0.5-2.1h1.2l-1.5,4.8h-1.1l-0.6-1.9c-0.1-0.5-0.3-0.9-0.4-1.5h0c-0.1,0.6-0.2,1.1-0.4,1.5l-0.6,1.9h-1.1
	l-1.4-4.8H97z"/>
<path d="M103,47c0-0.5,0.3-0.8,0.7-0.8c0.4,0,0.7,0.3,0.7,0.8c0,0.4-0.3,0.8-0.7,0.8C103.3,47.8,103,47.4,103,47z"/>
<polygon points="115,145 70,145 76.2,140.2 108.8,140.2 "/>
<rect x="26" y="143.8" width="133" height="3.3"/>
<polygon points="156.3,143.8 139.2,143.8 131.8,143.8 53.2,143.8 45.8,143.8 28.7,143.8 26,143.8 26,147.1 159,147.1 159,143.8 "/>
<polygon points="140.4,48.4 139.6,47.7 142.2,45.1 139.5,42.4 140.2,41.7 143.7,45 "/>
<rect x="135.5" y="44.5" width="6.9" height="1"/>
<g>
	<rect x="45" y="73" fill="#5780DE" width="95" height="15.6"/>
	<rect x="45" y="112.3" fill="#5780DE" width="95" height="15.6"/>
	<rect x="45" y="92.6" fill="#5780DE" width="95" height="15.6"/>
</g>
</svg>
