<?xml version="1.0" encoding="utf-8"?>
<!-- Generator: Adobe Illustrator 20.1.0, SVG Export Plug-In . SVG Version: 6.00 Build 0)  -->
<svg version="1.1" id="Layer_1" xmlns="http://www.w3.org/2000/svg" xmlns:xlink="http://www.w3.org/1999/xlink" x="0px" y="0px"
	 viewBox="0 0 97 97" enable-background="new 0 0 97 97" xml:space="preserve">
<circle fill="#E1E5EA" cx="48.5" cy="48.5" r="48.5"/>
<rect x="14.2" y="27.7" fill="#FFFFFF" width="68.6" height="48.8"/>
<g>
	<polygon fill="#E1E5EA" points="64,71.5 33,71.5 27.9,75.3 69.1,75.3 	"/>
	<polygon fill="#E1E5EA" points="29.1,71.5 20.1,71.5 15,75.3 24,75.3 	"/>
	<polygon fill="#E1E5EA" points="76.9,71.5 67.9,71.5 73,75.3 82,75.3 	"/>
	<polygon fill="#E1E5EA" points="64,32.9 33,32.9 27.9,29 69.1,29 	"/>
	<polygon fill="#E1E5EA" points="29.1,32.9 20.1,32.9 15,29 24,29 	"/>
	<polygon fill="#E1E5EA" points="76.9,32.9 67.9,32.9 73,29 82,29 	"/>
</g>
<path fill="#FFFFFF" d="M82.3,28.3V76H14.7V28.3H82.3 M83.4,27.2H13.6v49.9h69.7V27.2L83.4,27.2z"/>
<path d="M13.6,29v-8.7c0-1.2,1-2.2,2.2-2.2h65.4c1.2,0,2.2,1,2.2,2.2V29H13.6L13.6,29z"/>
<polygon fill="#FFFFFF" points="77.9,26.6 37,26.6 40.9,20.6 77.9,20.6 "/>
<circle fill="#FE9426" cx="21" cy="23.5" r="1.9"/>
<circle fill="#8AD5DD" cx="25.9" cy="23.5" r="1.9"/>
<circle fill="#939393" cx="30.8" cy="23.5" r="1.9"/>
<path d="M43,22.5l0.3,1.1c0.1,0.3,0.1,0.5,0.2,0.8h0c0.1-0.3,0.1-0.5,0.2-0.8l0.3-1.1h0.5l0.3,1.1c0.1,0.3,0.1,0.6,0.2,0.8h0
	c0-0.3,0.1-0.5,0.2-0.8l0.3-1.1h0.6L45.3,25h-0.6l-0.3-1c-0.1-0.3-0.1-0.5-0.2-0.8h0c-0.1,0.3-0.1,0.6-0.2,0.8l-0.3,1h-0.6l-0.7-2.5
	H43z"/>
<path d="M46.9,22.5l0.3,1.1c0.1,0.3,0.1,0.5,0.2,0.8h0c0.1-0.3,0.1-0.5,0.2-0.8l0.3-1.1h0.5l0.3,1.1c0.1,0.3,0.1,0.6,0.2,0.8h0
	c0-0.3,0.1-0.5,0.2-0.8l0.3-1.1H50L49.2,25h-0.6l-0.3-1c-0.1-0.3-0.1-0.5-0.2-0.8h0c-0.1,0.3-0.1,0.6-0.2,0.8l-0.3,1H47l-0.7-2.5
	H46.9z"/>
<path d="M50.8,22.5l0.3,1.1c0.1,0.3,0.1,0.5,0.2,0.8h0c0.1-0.3,0.1-0.5,0.2-0.8l0.3-1.1h0.5l0.3,1.1c0.1,0.3,0.1,0.6,0.2,0.8h0
	c0-0.3,0.1-0.5,0.2-0.8l0.3-1.1h0.6L53.1,25h-0.6l-0.3-1c-0.1-0.3-0.1-0.5-0.2-0.8h0c-0.1,0.3-0.1,0.6-0.2,0.8l-0.3,1h-0.6l-0.7-2.5
	H50.8z"/>
<path d="M54,24.6c0-0.2,0.2-0.4,0.4-0.4c0.2,0,0.4,0.2,0.4,0.4c0,0.2-0.2,0.4-0.4,0.4C54.1,25,54,24.8,54,24.6z"/>
<polygon points="60.3,76 36.7,76 40,73.5 57,73.5 "/>
<rect x="13.6" y="75.3" width="69.7" height="1.7"/>
<polygon points="82,75.3 73,75.3 69.1,75.3 27.9,75.3 24,75.3 15,75.3 13.6,75.3 13.6,77.1 83.4,77.1 83.4,75.3 "/>
<polygon points="73.6,25.4 73.2,25 74.6,23.6 73.1,22.2 73.5,21.8 75.3,23.6 "/>
<rect x="71.1" y="23.3" width="3.6" height="0.5"/>
<g>
	<rect x="23.6" y="65" fill="#C9C9C9" width="49.8" height="1.5"/>
	<rect x="23.6" y="61.1" fill="#C9C9C9" width="49.8" height="1.5"/>
	<rect x="23.6" y="57.2" fill="#C9C9C9" width="49.8" height="1.5"/>
	<rect x="23.6" y="53.4" fill="#C9C9C9" width="49.8" height="1.5"/>
	<rect x="23.6" y="49.5" fill="#C9C9C9" width="49.8" height="1.5"/>
	<rect x="23.6" y="45.7" fill="#C9C9C9" width="49.8" height="1.5"/>
	<rect x="23.6" y="41.8" fill="#C9C9C9" width="49.8" height="1.5"/>
	<rect x="23.6" y="38" fill="#C9C9C9" width="49.8" height="1.5"/>
</g>
</svg>
